<svg version="1.1" id="Layer_1" xmlns="http://www.w3.org/2000/svg" xmlns:xlink="http://www.w3.org/1999/xlink" x="0px" y="0px"
	 width="100%" viewBox="0 0 500 500" enable-background="new 0 0 500 500" xml:space="preserve">
<path fill="#FFFFFF" opacity="1.000000" stroke="none" 
	d="
M345.000000,501.000000 
	C230.000031,501.000000 115.500053,501.000000 1.000062,501.000000 
	C1.000041,334.333405 1.000041,167.666794 1.000021,1.000151 
	C167.666550,1.000101 334.333099,1.000101 500.999756,1.000050 
	C500.999817,167.666519 500.999817,334.333038 500.999908,500.999786 
	C449.166656,501.000000 397.333344,501.000000 345.000000,501.000000 
M324.724030,193.514496 
	C324.395233,193.375000 324.066467,193.235504 323.208801,192.999817 
	C322.800354,192.682022 322.391907,192.364227 321.674530,191.521027 
	C321.109344,191.348511 320.544189,191.175995 319.454163,190.947739 
	C319.299835,190.863312 319.145477,190.778870 318.729492,190.332443 
	C318.496613,190.120041 318.222656,190.019577 317.432465,190.008545 
	C317.432465,190.008545 316.998596,189.813400 316.658295,189.402039 
	C316.320892,189.316513 315.983490,189.230988 315.280151,189.114334 
	C315.280151,189.114334 314.992218,188.886398 314.612030,188.416046 
	C314.034180,188.294434 313.456360,188.172821 312.414948,188.014450 
	C312.414948,188.014450 311.995392,187.813858 311.637360,187.388504 
	C311.281616,187.315033 310.925842,187.241577 310.032043,187.183807 
	C309.695587,187.065079 309.359161,186.946365 308.870361,186.136642 
	C306.227997,183.794266 303.394531,182.394257 299.245728,184.233948 
	C298.833923,184.106766 298.422150,183.979584 297.870453,183.182938 
	C296.566254,183.155640 295.262024,183.128342 293.289032,183.141144 
	C292.855835,183.039566 292.422668,182.937988 291.510071,182.349869 
	C290.615356,182.308075 289.720612,182.266281 288.936920,182.191864 
	C288.936920,182.191864 288.883331,182.294418 288.488373,181.559570 
	C286.495331,181.428925 284.502319,181.298279 282.001495,181.311844 
	C281.670166,181.207870 281.338837,181.103912 280.480927,180.423035 
	C265.184875,176.957291 249.643143,178.196671 234.176407,178.052963 
	C233.453049,178.046234 232.723984,178.652054 231.382523,179.179245 
	C230.587296,179.455292 229.792053,179.731339 228.413086,180.561050 
	C228.608627,183.706314 228.804169,186.851578 229.000000,190.000000 
	C229.000000,190.000000 229.002289,190.001755 229.134048,190.770065 
	C230.281189,191.173294 231.417343,191.882721 232.577438,191.924271 
	C236.603653,192.068497 240.644852,192.127731 244.667831,191.944489 
	C249.808640,191.710297 254.937302,191.209305 260.913818,190.721329 
	C262.601990,190.857086 264.290192,190.992859 265.952728,191.943771 
	C264.364594,192.629852 262.783752,193.890976 261.187164,193.911240 
	C248.215195,194.075974 235.237228,193.864166 222.268967,194.139359 
	C219.826401,194.191177 217.419006,195.901566 214.161240,197.012985 
	C209.180435,197.765839 204.199615,198.518677 199.331116,199.254532 
	C198.307571,210.093674 198.372025,210.166443 208.410339,209.986588 
	C208.575989,209.983612 208.741348,209.963669 209.833344,209.988998 
	C220.544769,209.330078 231.257996,208.120102 241.967148,208.155060 
	C254.670914,208.196548 267.371185,209.309952 280.924500,210.015274 
	C289.649750,211.950974 298.375000,213.886673 307.136810,216.545120 
	C308.072205,217.783676 309.007629,219.022232 309.151154,220.085587 
	C295.380554,215.985901 281.268250,213.898392 266.421234,212.365463 
	C261.298370,212.220139 256.175537,212.074814 250.145172,212.073456 
	C247.085358,212.041473 244.025543,212.009491 240.494644,211.409943 
	C238.927017,210.959518 237.325058,210.029114 235.797440,210.138351 
	C227.328171,210.743912 218.866196,211.506973 210.429367,212.460602 
	C208.881744,212.635529 207.461380,213.936386 205.316284,214.897308 
	C204.858368,214.893860 204.400436,214.890427 203.425095,214.363815 
	C200.609802,215.143616 197.794510,215.923431 194.325958,216.911102 
	C193.869675,216.916519 193.413406,216.921936 192.484665,216.411530 
	C190.081131,215.784698 187.788788,215.430725 186.329208,218.908554 
	C185.882736,218.951477 185.436264,218.994400 184.543884,218.483917 
	C178.619812,219.415344 172.282440,219.476318 168.956589,225.975815 
	C168.956589,225.975815 168.866364,225.959366 168.497604,226.054565 
	C168.252243,226.170517 168.091904,226.358841 167.619736,226.933380 
	C167.457825,226.980560 167.295898,227.027740 166.603287,227.216263 
	C166.413025,227.516418 166.222778,227.816559 165.683197,228.770584 
	C164.704010,233.248276 166.750076,238.107101 170.757446,238.999802 
	C172.952240,238.244247 176.201019,238.849716 175.995331,235.003067 
	C175.995331,235.003067 175.959778,234.969498 176.359772,234.922043 
	C176.629501,234.832916 176.828293,234.661530 177.404297,234.060532 
	C177.591736,234.036484 177.779190,234.012421 178.803955,234.024963 
	C183.149933,233.142456 188.085434,233.775238 191.647400,229.014984 
	C192.092224,228.966949 192.537033,228.918915 193.079529,229.593109 
	C194.096222,229.691315 195.269104,230.164658 196.100723,229.818359 
	C198.744629,228.717422 201.131180,228.131012 203.015488,231.831161 
	C203.456451,233.860443 204.032806,235.871780 204.304672,237.923477 
	C204.657928,240.589249 204.769073,243.287094 204.119278,245.979523 
	C202.387787,246.002182 200.656311,246.024841 198.884827,245.417587 
	C197.243958,243.955902 196.712006,244.260849 195.419815,247.288055 
	C192.229202,248.764542 187.869415,249.400360 190.093643,254.749344 
	C192.289627,260.030396 197.572372,262.832916 201.818314,261.192627 
	C205.018845,259.956238 208.292282,258.592102 211.647034,258.152069 
	C215.761856,257.612305 219.995193,257.975983 224.070450,258.830444 
	C224.710205,262.285736 225.349960,265.741028 226.036057,269.446625 
	C226.168365,269.439331 225.580978,269.468506 224.994019,269.504486 
	C220.251740,269.795288 215.315750,269.544891 212.026321,273.994904 
	C212.026321,273.994904 212.112854,274.107056 211.377472,274.108368 
	C209.137924,278.337769 210.709869,279.945526 216.997116,279.994690 
	C216.997116,279.994690 217.062149,279.920837 217.164825,280.712097 
	C222.226578,280.706573 227.295349,280.871246 232.348740,280.663025 
	C246.378632,280.084930 260.680420,277.065857 272.170868,284.785461 
	C273.066620,287.647583 273.575195,289.272614 274.859253,290.958130 
	C275.877014,290.830597 276.894745,290.703064 278.173065,291.143707 
	C278.741058,290.719177 279.309082,290.294678 279.995361,290.000763 
	C279.995361,290.000763 279.881836,289.868896 280.618378,289.909698 
	C281.358673,289.215759 282.098999,288.521820 282.991638,288.000763 
	C282.991638,288.000763 282.844360,287.827087 283.577057,287.908539 
	C284.830505,288.135773 286.083954,288.363007 287.628052,288.642914 
	C287.401093,287.223938 287.227905,286.141083 287.134705,285.558350 
	C290.382172,284.260406 293.920959,283.682922 296.262848,281.695282 
	C299.100281,279.286987 300.926086,275.686768 303.466614,272.635651 
	C303.466614,272.635651 303.727661,272.733917 304.501648,272.928894 
	C306.332458,271.573822 308.163269,270.218781 310.708984,269.009735 
	C312.036682,269.020813 313.364380,269.031891 314.692078,269.042999 
	C314.078400,268.037842 313.464722,267.032684 312.927734,265.224060 
	C312.951019,264.147888 312.974274,263.071686 313.553711,261.662231 
	C313.769226,261.291199 313.984741,260.920166 314.417480,260.532562 
	C314.417480,260.532562 314.581299,260.676178 315.363342,260.858887 
	C319.381287,261.655518 318.596375,259.256012 317.997131,257.002106 
	C317.997131,257.002106 317.949982,256.965790 318.690399,256.890747 
	C319.461243,255.375290 320.301270,253.890244 320.984558,252.336288 
	C321.749542,250.596634 322.372498,248.794525 323.790039,246.914444 
	C324.862061,245.269958 326.176514,243.732666 326.960083,241.960632 
	C329.209045,236.874435 326.105499,230.744537 330.261322,225.206085 
	C330.233002,222.474777 330.204681,219.743484 330.782043,216.886597 
	C330.949280,215.681244 331.116516,214.475891 331.568481,212.722198 
	C331.328430,209.260773 331.088379,205.799332 330.937866,201.675308 
	C330.647156,201.118286 330.356445,200.561249 329.835358,199.793594 
	C329.835358,199.793594 329.830841,199.481461 329.793304,198.872269 
	C329.526917,198.581024 329.260559,198.289795 328.461151,197.677521 
	C327.653229,196.734970 326.845337,195.792419 325.810333,194.443604 
	C325.600433,194.192490 325.332947,194.047745 324.997559,194.003799 
	C324.997559,194.003799 324.989197,193.995316 324.724030,193.514496 
M228.547897,130.435699 
	C227.357834,130.927658 226.167770,131.419601 224.364548,132.144592 
	C223.929932,132.175308 223.495331,132.206024 222.565125,131.564377 
	C218.821198,131.720215 214.925323,131.272568 211.367661,132.168274 
	C205.507736,133.643616 199.736435,135.697220 194.222351,138.165253 
	C192.795670,138.803802 192.464539,141.890045 191.630188,143.851959 
	C193.473907,144.023407 195.373901,144.567581 197.151184,144.299179 
	C203.482117,143.343079 209.771286,142.110580 216.041489,141.773956 
	C215.884048,143.558365 215.321930,145.422913 215.656006,147.109985 
	C216.291595,150.319565 214.587341,150.622238 212.127579,151.047043 
	C202.531113,152.704346 192.920395,154.351257 183.434021,156.522171 
	C181.118835,157.052002 179.256042,159.558655 177.148331,161.134171 
	C177.148331,161.134171 177.117523,161.105118 176.636536,161.179123 
	C176.325333,161.324219 176.112045,161.558456 175.691010,162.098404 
	C175.691010,162.098404 175.327637,162.189423 174.592712,162.119080 
	C169.941986,162.468338 170.953384,166.665100 169.757904,169.328445 
	C169.239426,170.483551 169.084045,171.801605 168.763763,173.045654 
	C170.167023,173.310165 171.644287,173.979019 172.955215,173.739090 
	C174.679092,173.423584 176.228088,172.261108 177.929306,171.693787 
	C183.900330,169.702621 189.453720,164.876755 196.929550,169.339478 
	C196.756958,172.088104 196.584381,174.836731 196.430084,177.294022 
	C208.283997,176.202515 219.830841,174.180023 231.356323,174.295135 
	C250.269775,174.484070 269.280304,175.124664 288.039673,177.348495 
	C303.002533,179.122238 318.284241,181.939636 330.728058,193.208862 
	C329.421631,189.597275 328.115234,185.985672 326.904541,181.555496 
	C326.859589,179.646866 326.977997,177.716583 326.728455,175.835083 
	C326.415955,173.478638 326.373596,170.809937 325.198608,168.901581 
	C322.721008,164.877670 319.721985,161.142258 316.655487,157.527176 
	C315.120636,155.717697 312.967743,154.432465 310.997681,152.204727 
	C309.272491,149.882736 306.708160,147.791901 305.991943,145.191971 
	C304.360901,139.271255 299.745514,138.257263 294.672729,136.439529 
	C288.215332,130.911728 280.805267,127.196747 272.459015,125.783295 
	C265.170227,124.548912 257.785400,123.470917 250.420486,123.301071 
	C247.519455,123.234169 243.120087,121.858902 241.254547,126.719482 
	C241.254547,126.719482 241.084305,127.033188 240.338730,127.021881 
	C238.567902,128.371918 236.797073,129.721954 234.438705,131.201019 
	C234.038315,131.197021 233.637939,131.193039 232.401230,131.022217 
	C231.276093,130.987656 230.150940,130.953079 228.547897,130.435699 
M130.843826,324.889587 
	C128.118271,326.406281 128.478470,328.322571 131.105103,328.813538 
	C134.905014,329.523804 139.019394,329.945068 142.724518,329.171722 
	C144.533066,328.794250 146.712570,325.515472 146.878616,323.404785 
	C147.015259,321.667786 144.754639,319.256195 142.959518,317.989624 
	C141.155655,316.716888 138.513672,316.702484 136.434784,315.721619 
	C135.263077,315.168793 134.486435,313.778595 133.531815,312.765594 
	C134.657455,311.749908 135.766541,309.904572 136.912033,309.881714 
	C139.784149,309.824341 142.672729,310.591980 146.044220,311.102905 
	C145.942093,310.113556 146.218887,308.762360 145.669113,308.131744 
	C142.405685,304.388214 132.674057,305.611053 130.071457,309.967102 
	C128.047516,313.354584 129.059052,316.894867 132.871811,318.616974 
	C135.273224,319.701630 137.990158,320.078613 140.418716,321.116608 
	C141.437317,321.551971 142.756622,322.917938 142.703201,323.784668 
	C142.645569,324.720154 141.126221,326.330933 140.273102,326.312683 
	C137.384964,326.250824 134.509491,325.598206 130.843826,324.889587 
M266.486206,314.594757 
	C266.486206,319.655579 266.486206,324.716370 266.486206,330.130035 
	C268.413605,329.907990 269.612152,329.769928 271.113892,329.596893 
	C271.113892,326.317810 271.113892,323.395905 271.113892,320.057251 
	C273.571533,320.057251 275.692902,320.173828 277.796967,320.032532 
	C281.942322,319.754181 284.745544,317.773376 284.972015,313.359222 
	C285.191925,309.073547 282.431305,306.854431 278.672485,306.400513 
	C274.822815,305.935608 270.873322,306.297516 266.524597,306.297516 
	C266.524597,309.062958 266.524597,311.349762 266.486206,314.594757 
M342.715973,327.741730 
	C346.273499,330.896667 350.268555,330.850769 354.321716,329.057983 
	C355.006073,328.755310 355.173340,327.283661 355.830566,325.776306 
	C347.103485,327.735718 346.077911,327.336517 345.156464,321.846191 
	C348.811859,321.846191 352.400574,321.846191 355.979431,321.846191 
	C355.823059,314.242859 350.638123,310.600616 344.969849,313.672516 
	C340.458008,316.117706 339.460754,321.025818 342.715973,327.741730 
M336.161835,321.895325 
	C336.063293,317.926208 336.686646,313.308472 330.919678,312.938599 
	C327.544586,312.722107 324.111053,313.416229 320.434235,313.723175 
	C320.434235,318.240051 320.245758,322.868469 320.573883,327.459961 
	C320.650726,328.535400 322.476440,329.485870 323.497559,330.493805 
	C323.968048,330.182709 324.438568,329.871613 324.909058,329.560516 
	C324.909058,326.269775 324.514008,322.907318 325.092560,319.721619 
	C325.343689,318.338867 327.598633,317.320007 328.943451,316.135864 
	C329.952179,317.410187 331.646912,318.592865 331.831848,319.977234 
	C332.263519,323.208801 331.969635,326.537262 331.969635,329.848267 
	C333.587006,329.848267 334.715881,329.848267 336.162079,329.848267 
	C336.162079,327.369659 336.162079,325.062958 336.161835,321.895325 
M238.871307,329.609314 
	C238.980438,326.465332 238.647675,323.213684 239.376999,320.220825 
	C239.767090,318.620148 241.987976,317.465637 243.382629,316.109802 
	C244.392212,317.547913 245.891083,318.863739 246.288635,320.454742 
	C246.796188,322.486053 246.497925,324.743408 246.397644,326.896423 
	C246.224533,330.612762 248.087921,330.417450 250.753082,329.463562 
	C250.753082,325.715698 250.947556,322.229553 250.696320,318.775879 
	C250.462906,315.566986 249.134430,312.802917 245.301559,312.880707 
	C241.897995,312.949738 238.502502,313.416626 234.971359,313.719238 
	C234.971359,318.180115 235.104752,322.657532 234.919327,327.121643 
	C234.814850,329.636963 235.773270,330.405487 238.871307,329.609314 
M209.161392,330.133331 
	C212.601868,329.935394 216.042343,329.737488 219.947144,329.512878 
	C219.947144,326.935272 219.947144,324.323761 219.947144,321.712250 
	C219.947144,318.927765 219.947144,316.143250 219.947144,312.963165 
	C217.634155,313.314850 215.778915,314.080750 214.134567,313.761230 
	C207.808380,312.532166 205.341232,313.308411 203.560349,317.686432 
	C201.490036,322.775940 203.243790,327.256561 209.161392,330.133331 
M298.043640,320.703461 
	C298.095337,325.191559 299.113068,329.349731 304.317627,329.982086 
	C307.744751,330.398468 311.312347,329.658661 314.793030,329.438110 
	C314.793030,324.083008 314.793030,318.669952 314.793030,312.846283 
	C312.740662,313.311035 310.967957,314.301910 309.544525,313.935577 
	C302.295685,312.070099 300.468262,312.902771 298.043640,320.703461 
M167.084076,315.785797 
	C167.171875,312.107178 165.181046,312.869598 162.854843,313.686676 
	C162.854843,316.895905 163.335739,320.002258 162.665634,322.836426 
	C162.292877,324.412994 160.001892,325.536011 158.575424,326.863434 
	C157.698425,325.496246 156.247635,324.201752 156.063263,322.746796 
	C155.673203,319.668701 155.944427,316.506836 155.944427,313.262329 
	C154.284805,313.262329 153.167847,313.262329 151.804581,313.262329 
	C151.804581,317.258636 151.673035,321.075653 151.844421,324.879028 
	C151.993073,328.178101 153.852188,330.168884 157.264771,330.118134 
	C160.410034,330.071381 163.550873,329.725769 167.086761,329.485046 
	C167.086761,325.339417 167.086761,321.036713 167.084076,315.785797 
M172.956375,325.863525 
	C173.306503,327.046692 173.411392,329.073395 174.051392,329.259430 
	C176.222366,329.890594 178.812057,330.563995 180.805649,329.903961 
	C182.782425,329.249481 185.089752,327.234650 185.598175,325.366394 
	C185.915802,324.199280 183.410965,321.862701 181.732712,320.669922 
	C180.144760,319.541260 177.982391,319.220825 176.072662,318.544922 
	C176.137863,318.012604 176.203064,317.480316 176.268265,316.947998 
	C179.007095,316.947998 181.745926,316.947998 184.484711,316.947998 
	C184.858078,313.573578 181.977295,311.648071 177.240463,313.089142 
	C175.267410,313.689392 172.985565,315.913208 172.503967,317.818359 
	C172.199905,319.021118 174.725174,321.348450 176.426819,322.529480 
	C178.011688,323.629425 180.186096,323.879974 182.659195,324.686493 
	C179.335022,328.568024 176.460861,326.655762 172.956375,325.863525 
M199.970886,329.105042 
	C199.966995,328.608002 200.093781,327.721619 199.940323,327.670105 
	C193.987015,325.671875 195.798141,321.000763 195.952072,317.352722 
	C197.548965,316.316681 198.769119,315.525116 199.989258,314.733521 
	C198.668655,313.862122 197.348038,312.990723 195.850586,312.002655 
	C195.707016,310.956116 195.515228,309.558014 195.107681,306.587158 
	C192.200378,309.905060 190.134277,312.219574 188.153778,314.605194 
	C187.995132,314.796295 188.350906,315.825867 188.595200,315.878998 
	C192.987808,316.834167 191.020493,320.337616 191.215286,322.755890 
	C191.724594,329.079346 193.247330,330.486603 199.970886,329.105042 
M359.105591,315.904205 
	C360.044800,317.134979 361.450104,318.244537 361.809326,319.626099 
	C362.295898,321.497437 361.785675,323.603790 362.051819,325.561890 
	C362.516205,328.978271 365.917023,331.172699 369.000824,329.976440 
	C369.633392,329.730988 369.732208,328.109589 370.077026,327.122437 
	C363.344940,325.536682 366.897522,320.504852 366.272186,317.279144 
	C368.016693,316.263702 369.286957,315.524261 370.557251,314.784821 
	C369.223724,313.948883 367.890228,313.112946 366.289185,312.109314 
	C366.115540,311.045593 365.867523,309.526367 365.619507,308.007141 
	C365.229584,307.834839 364.839661,307.662567 364.449738,307.490265 
	C362.563446,310.070648 360.677185,312.651062 359.105591,315.904205 
M293.413147,314.576843 
	C293.413147,311.629303 293.413147,308.681793 293.413147,305.734253 
	C292.915161,305.451050 292.417206,305.167816 291.919220,304.884583 
	C290.989105,306.000488 289.294037,307.089600 289.253845,308.236633 
	C289.005219,315.333771 289.128845,322.443939 289.128845,329.736389 
	C290.701996,329.736389 291.907074,329.736389 293.410919,329.736389 
	C293.410919,324.806213 293.410919,320.177521 293.413147,314.576843 
M229.876190,321.501587 
	C229.874847,319.672943 229.801270,317.840851 229.887833,316.016357 
	C230.047272,312.656006 228.277725,312.562378 225.573807,313.510437 
	C225.573807,318.915131 225.573807,324.323792 225.573807,329.728516 
	C228.323441,330.428406 230.171341,330.301331 229.895111,326.942657 
	C229.772919,325.456604 229.875641,323.952026 229.876190,321.501587 
z"/>
<path fill="#D92B41" opacity="1.000000" stroke="none" 
	d="
M177.966660,233.988342 
	C177.779190,234.012421 177.591736,234.036484 176.961426,234.195740 
	C176.198135,234.426346 176.011887,234.639191 175.959778,234.969498 
	C175.959778,234.969498 175.995331,235.003067 175.637939,234.990677 
	C173.514023,236.311050 171.747482,237.643829 169.980957,238.976593 
	C166.750076,238.107101 164.704010,233.248276 166.123779,228.372070 
	C166.754211,227.674026 166.944092,227.374466 167.133972,227.074921 
	C167.295898,227.027740 167.457825,226.980560 168.039017,226.820038 
	C168.768661,226.552872 168.904694,226.303757 168.866364,225.959366 
	C168.866364,225.959366 168.956589,225.975815 169.309448,225.889099 
	C174.771469,223.547379 179.880630,221.292343 184.989792,219.037308 
	C185.436264,218.994400 185.882736,218.951477 187.001526,218.821350 
	C189.434937,218.131866 191.196030,217.529617 192.957123,216.927353 
	C193.413406,216.921936 193.869675,216.916519 195.043716,216.850647 
	C198.488495,216.155792 201.215500,215.521378 203.942520,214.886978 
	C204.400436,214.890427 204.858368,214.893860 206.070938,214.881134 
	C209.625458,214.536545 212.418243,214.118973 215.226486,213.896362 
	C223.803040,213.216461 232.385544,212.611572 240.965729,211.977509 
	C244.025543,212.009491 247.085358,212.041473 250.950836,212.191559 
	C256.826752,212.513824 261.896973,212.718002 266.967224,212.922180 
	C281.268250,213.898392 295.380554,215.985901 309.721802,220.461212 
	C313.071442,222.249527 315.838470,223.686325 318.631744,225.070251 
	C326.519775,228.978394 328.235962,235.491684 322.861115,243.256592 
	C317.700775,235.173706 309.462128,232.246750 300.987640,229.878616 
	C276.333008,222.989090 251.126053,221.851456 225.804062,223.772720 
	C214.797760,224.607834 203.918701,227.120270 192.981857,228.870880 
	C192.537033,228.918915 192.092224,228.966949 190.958160,229.085159 
	C186.168152,230.766342 182.067413,232.377335 177.966660,233.988342 
z"/>
<path fill="#D7187D" opacity="1.000000" stroke="none" 
	d="
M208.906845,209.951645 
	C208.741348,209.963669 208.575989,209.983612 208.410339,209.986588 
	C198.372025,210.166443 198.307571,210.093674 199.331116,199.254532 
	C204.199615,198.518677 209.180435,197.765839 215.008392,196.996948 
	C216.521072,196.984283 217.194153,197.055038 217.850998,196.981232 
	C238.077881,194.708008 258.309326,195.093323 278.425903,197.806030 
	C288.969543,199.227829 299.418457,201.599152 309.770416,204.116241 
	C317.875732,206.087051 325.776062,208.926132 330.176361,217.012177 
	C330.204681,219.743484 330.233002,222.474777 329.747864,225.637238 
	C328.213196,225.668869 326.871613,225.554642 326.221466,224.824646 
	C321.105957,219.081009 314.143738,217.390839 307.100250,215.822388 
	C298.375000,213.886673 289.649750,211.950974 280.260193,209.634155 
	C273.901794,208.570679 268.219330,207.446686 262.511322,207.296997 
	C250.245865,206.975388 237.957993,206.866776 225.698196,207.260132 
	C220.078079,207.440430 214.502579,209.011353 208.906845,209.951645 
z"/>
<path fill="#37378B" opacity="1.000000" stroke="none" 
	d="
M326.808838,182.374069 
	C328.115234,185.985672 329.421631,189.597275 330.728058,193.208862 
	C318.284241,181.939636 303.002533,179.122238 288.039673,177.348495 
	C269.280304,175.124664 250.269775,174.484070 231.356323,174.295135 
	C219.830841,174.180023 208.283997,176.202515 196.430084,177.294022 
	C196.584381,174.836731 196.756958,172.088104 196.902771,168.865555 
	C198.138168,168.008286 199.375534,167.455856 200.666183,167.266342 
	C232.797012,162.548141 264.893921,162.522888 296.722839,169.284134 
	C307.462952,171.565582 318.594879,173.865677 326.808838,182.374069 
z"/>
<path fill="#E0F6FB" opacity="1.000000" stroke="none" 
	d="
M326.856689,181.964783 
	C318.594879,173.865677 307.462952,171.565582 296.722839,169.284134 
	C264.893921,162.522888 232.797012,162.548141 200.666183,167.266342 
	C199.375534,167.455856 198.138168,168.008286 196.613129,168.615417 
	C189.453720,164.876755 183.900330,169.702621 177.929306,171.693787 
	C176.228088,172.261108 174.679092,173.423584 172.955215,173.739090 
	C171.644287,173.979019 170.167023,173.310165 168.763763,173.045654 
	C169.084045,171.801605 169.239426,170.483551 169.757904,169.328445 
	C170.953384,166.665100 169.941986,162.468338 174.856033,162.501160 
	C174.048676,165.392441 172.977997,167.901657 171.547821,171.253372 
	C177.410400,169.270477 182.136276,167.301285 187.047501,166.073486 
	C211.592728,159.937149 236.500473,157.984665 261.735413,159.942688 
	C283.113983,161.601471 304.420502,163.452377 324.500580,175.616455 
	C323.763733,173.159683 323.771515,171.263199 322.830505,170.394516 
	C319.486664,167.307678 316.216278,163.720703 312.205933,161.849152 
	C294.853088,153.750870 276.075348,151.882019 257.285492,151.098419 
	C230.077194,149.963745 203.092773,151.509674 177.185242,161.156403 
	C179.256042,159.558655 181.118835,157.052002 183.434021,156.522171 
	C192.920395,154.351257 202.531113,152.704346 212.127579,151.047043 
	C214.587341,150.622238 216.291595,150.319565 215.656006,147.109985 
	C215.321930,145.422913 215.884048,143.558365 216.509094,141.396637 
	C217.849136,141.234299 218.721573,141.449265 219.534409,142.032013 
	C218.974731,144.118820 218.474655,145.837860 217.909805,147.779556 
	C220.668045,147.779556 222.984756,147.953094 225.268646,147.752747 
	C248.586594,145.707062 271.648468,147.536514 294.537720,152.169388 
	C299.467224,153.167160 304.410919,154.094742 309.590637,155.188660 
	C310.253601,154.518478 310.673981,153.714310 311.094360,152.910126 
	C312.967743,154.432465 315.120636,155.717697 316.655487,157.527176 
	C319.721985,161.142258 322.721008,164.877670 325.198608,168.901581 
	C326.373596,170.809937 326.415955,173.478638 326.728455,175.835083 
	C326.977997,177.716583 326.859589,179.646866 326.856689,181.964783 
z"/>
<path fill="#E47636" opacity="1.000000" stroke="none" 
	d="
M314.581299,260.676178 
	C314.581299,260.676178 314.417480,260.532562 314.322968,260.160156 
	C314.244080,253.585327 310.645416,250.357300 304.959961,248.502380 
	C304.295074,248.160629 303.787781,248.033386 303.018372,247.644806 
	C299.166656,246.305862 295.577118,245.228271 291.691956,244.030579 
	C290.976074,243.860825 290.555817,243.811157 289.822205,243.546570 
	C263.909180,237.756912 238.123489,237.521347 212.248291,240.833481 
	C208.963913,241.253891 207.175110,240.471603 206.553711,237.187164 
	C206.221359,235.430557 205.712067,233.707428 205.202911,231.646423 
	C211.004944,230.719849 216.494400,229.843185 222.365234,229.012329 
	C223.507065,228.973694 224.267517,228.889267 225.486465,228.880920 
	C230.971069,228.650925 235.997177,228.344818 241.482010,228.092575 
	C245.943848,228.123566 249.946976,228.100708 254.283386,228.305344 
	C257.760956,228.616608 260.905243,228.700409 264.436768,228.866058 
	C265.876404,228.950897 266.928741,228.953873 268.286987,229.184998 
	C270.407593,229.529617 272.222290,229.646057 274.390076,229.870483 
	C275.477997,230.017471 276.212799,230.056488 277.218750,230.327286 
	C278.670685,230.651199 279.851440,230.743317 281.350647,230.922485 
	C282.107605,231.007996 282.546082,231.006485 283.285400,231.248688 
	C290.393341,232.994980 297.200500,234.497543 304.004395,235.999146 
	C304.001099,235.998169 303.995331,235.993774 304.080505,236.194611 
	C304.165649,236.395432 304.538452,236.620575 304.538452,236.620575 
	C304.538452,236.620575 304.970367,236.564835 305.277283,236.722717 
	C306.034302,236.968613 306.484375,237.056625 307.151947,237.396835 
	C309.598480,238.703949 311.827484,239.758865 314.191864,240.931061 
	C314.327209,241.048340 314.681732,241.099228 314.822357,241.350494 
	C315.300964,241.757935 315.638947,241.914108 315.983459,242.037079 
	C315.990021,242.003860 315.928223,242.031509 316.028198,242.268066 
	C316.426178,242.655502 316.724213,242.806396 317.011108,242.978958 
	C317.000000,243.000610 317.038239,242.970367 317.174194,243.302551 
	C321.673676,247.879242 319.723175,252.426773 317.949982,256.965790 
	C317.949982,256.965790 317.997131,257.002106 317.686249,257.105347 
	C316.444000,258.364441 315.512665,259.520294 314.581299,260.676178 
z"/>
<path fill="#F1C222" opacity="1.000000" stroke="none" 
	d="
M303.727661,272.733917 
	C303.727661,272.733917 303.466614,272.635651 303.375732,272.446838 
	C303.284821,272.258057 303.176025,271.916595 303.328125,271.611084 
	C304.073975,266.278198 300.927368,263.753754 296.994141,261.944366 
	C285.019958,256.435852 272.249878,254.738617 259.238098,253.679855 
	C240.015549,252.115753 221.063202,253.264374 202.344696,257.826660 
	C196.215408,259.320557 193.791306,257.899628 192.654587,250.985489 
	C204.781815,246.879349 217.380905,244.652863 230.135071,244.215332 
	C242.739105,243.782959 255.385208,244.576645 268.416473,244.924057 
	C270.196747,245.053650 271.573364,245.091705 273.248962,245.379761 
	C283.338654,248.118240 293.129425,250.606720 302.945618,253.086792 
	C302.971069,253.078415 302.926941,253.077240 303.132874,253.331268 
	C304.537964,254.114655 305.737091,254.643997 307.067078,255.418701 
	C307.771210,256.121124 308.344452,256.578186 308.982635,257.394470 
	C311.665100,261.456787 311.041656,264.827332 308.040985,267.991302 
	C306.570831,269.541473 305.163452,271.151154 303.727661,272.733917 
z"/>
<path fill="#FBE4FA" opacity="1.000000" stroke="none" 
	d="
M314.681732,241.099228 
	C314.681732,241.099228 314.327209,241.048340 314.173248,240.573563 
	C312.652191,236.728912 310.143585,236.096756 306.934448,237.144653 
	C306.484375,237.056625 306.034302,236.968613 305.154449,236.569321 
	C304.514832,236.078201 304.271698,235.990112 303.995331,235.993774 
	C303.995331,235.993774 304.001099,235.998169 303.954529,235.639801 
	C297.678955,230.208817 290.282806,230.846497 282.984589,231.004974 
	C282.546082,231.006485 282.107605,231.007996 281.275269,230.590012 
	C279.570160,230.145523 278.258911,230.120514 276.947632,230.095505 
	C276.212799,230.056488 275.477997,230.017471 274.296448,229.525726 
	C271.893555,229.034286 269.937317,228.995560 267.981110,228.956833 
	C266.928741,228.953873 265.876404,228.950897 264.319824,228.498489 
	C260.527130,228.058655 257.238617,228.068253 253.950089,228.077850 
	C249.946976,228.100708 245.943848,228.123566 241.478424,227.699722 
	C240.160141,226.281387 239.044907,224.341949 238.489105,224.490845 
	C233.943100,225.708679 229.501373,227.315918 225.027969,228.804825 
	C224.267517,228.889267 223.507065,228.973694 222.096191,228.727448 
	C215.989731,228.396744 210.533661,228.396744 204.580460,228.396744 
	C204.346298,228.789978 203.692719,229.887573 203.039124,230.985168 
	C201.131180,228.131012 198.744629,228.717422 196.100723,229.818359 
	C195.269104,230.164658 194.096222,229.691315 193.030701,229.231995 
	C203.918701,227.120270 214.797760,224.607834 225.804062,223.772720 
	C251.126053,221.851456 276.333008,222.989090 300.987640,229.878616 
	C309.462128,232.246750 317.700775,235.173706 322.861115,243.256592 
	C328.235962,235.491684 326.519775,228.978394 318.631744,225.070251 
	C315.838470,223.686325 313.071442,222.249527 310.117737,220.548828 
	C309.007629,219.022232 308.072205,217.783676 307.118530,216.183746 
	C314.143738,217.390839 321.105957,219.081009 326.221466,224.824646 
	C326.871613,225.554642 328.213196,225.668869 329.602783,225.995819 
	C326.105499,230.744537 329.209045,236.874435 326.960083,241.960632 
	C326.176514,243.732666 324.862061,245.269958 323.357941,246.621552 
	C320.963318,245.209213 319.000763,244.089798 317.038239,242.970367 
	C317.038239,242.970367 317.000000,243.000610 316.900604,242.750732 
	C316.510223,242.344406 316.219208,242.187958 315.928223,242.031509 
	C315.928223,242.031509 315.990021,242.003860 315.859192,241.772675 
	C315.379486,241.394058 315.030609,241.246643 314.681732,241.099228 
z"/>
<path fill="#F9F6C0" opacity="1.000000" stroke="none" 
	d="
M268.012848,244.832504 
	C255.385208,244.576645 242.739105,243.782959 230.135071,244.215332 
	C217.380905,244.652863 204.781815,246.879349 192.654587,250.985489 
	C193.791306,257.899628 196.215408,259.320557 202.344696,257.826660 
	C221.063202,253.264374 240.015549,252.115753 259.238098,253.679855 
	C272.249878,254.738617 285.019958,256.435852 296.994141,261.944366 
	C300.927368,263.753754 304.073975,266.278198 302.961060,271.597321 
	C301.142426,269.891876 299.919586,267.839478 298.527191,265.909363 
	C295.821075,262.158234 289.900787,260.791565 287.463379,263.288879 
	C282.060486,262.112823 277.095337,260.342133 272.041290,260.035034 
	C256.858643,259.112518 241.641342,258.760864 226.061142,258.133636 
	C225.182251,258.036896 224.679764,257.992981 224.177292,257.949097 
	C219.995193,257.975983 215.761856,257.612305 211.647034,258.152069 
	C208.292282,258.592102 205.018845,259.956238 201.818314,261.192627 
	C197.572372,262.832916 192.289627,260.030396 190.093643,254.749344 
	C187.869415,249.400360 192.229202,248.764542 196.052872,247.129761 
	C197.432220,246.663483 198.178528,246.355499 198.924820,246.047501 
	C200.656311,246.024841 202.387787,246.002182 204.944824,245.943115 
	C206.243927,245.752472 206.710007,245.568176 207.192093,245.448288 
	C225.651779,240.857742 244.467743,242.080338 263.199249,242.186508 
	C264.808716,242.195633 266.408539,243.910172 268.012848,244.832504 
z"/>
<path fill="#2F9C60" opacity="1.000000" stroke="none" 
	d="
M277.912506,290.575531 
	C276.894745,290.703064 275.877014,290.830597 274.452637,290.585693 
	C277.664886,285.464050 277.271454,283.531372 271.451141,281.367401 
	C260.530182,277.307007 249.111404,276.644562 237.619186,277.512390 
	C230.745422,278.031494 223.913101,279.099548 217.062149,279.920837 
	C217.062149,279.920837 216.997116,279.994690 216.905670,279.653992 
	C215.247101,277.577881 213.679977,275.842468 212.112854,274.107056 
	C212.112854,274.107056 212.026321,273.994904 212.458298,274.049866 
	C219.718170,272.909943 226.502945,271.212402 233.382721,270.622375 
	C248.795227,269.300415 264.180298,269.528107 278.957520,275.002777 
	C286.776764,277.899628 287.684906,281.265076 282.844360,287.827087 
	C282.844360,287.827087 282.991638,288.000763 282.590546,287.924683 
	C281.420258,288.522034 280.651062,289.195465 279.881836,289.868896 
	C279.881836,289.868896 279.995361,290.000763 279.655334,289.952759 
	C278.847687,290.128357 278.380096,290.351959 277.912506,290.575531 
z"/>
<path fill="#44A6C7" opacity="1.000000" stroke="none" 
	d="
M177.166779,161.145294 
	C203.092773,151.509674 230.077194,149.963745 257.285492,151.098419 
	C276.075348,151.882019 294.853088,153.750870 312.205933,161.849152 
	C316.216278,163.720703 319.486664,167.307678 322.830505,170.394516 
	C323.771515,171.263199 323.763733,173.159683 324.500580,175.616455 
	C304.420502,163.452377 283.113983,161.601471 261.735413,159.942688 
	C236.500473,157.984665 211.592728,159.937149 187.047501,166.073486 
	C182.136276,167.301285 177.410400,169.270477 171.547821,171.253372 
	C172.977997,167.901657 174.048676,165.392441 175.223495,162.536316 
	C175.327637,162.189423 175.691010,162.098404 176.098969,161.978119 
	C176.710464,161.606934 176.913986,161.356018 177.117523,161.105103 
	C177.117523,161.105118 177.148331,161.134171 177.166779,161.145294 
M227.476074,157.999283 
	C232.434738,157.697372 237.420502,156.912689 242.346695,157.189178 
	C254.404312,157.865921 266.458466,158.804382 278.468353,160.070663 
	C289.135223,161.195343 299.914764,161.990967 309.951721,166.441315 
	C312.966736,167.778183 316.165131,168.701477 319.279480,169.814224 
	C310.870148,160.682312 299.500702,158.029373 288.432495,156.338242 
	C271.666901,153.776642 254.855621,151.492569 237.587463,152.681320 
	C218.330811,154.006973 199.261002,155.299561 181.005768,162.054260 
	C179.116211,162.753418 177.562866,164.361221 175.853531,165.547409 
	C176.113434,166.045288 176.373337,166.543167 176.633240,167.041046 
	C192.841675,161.554047 209.601944,159.340454 227.476074,157.999283 
z"/>
<path fill="#8DC14B" opacity="1.000000" stroke="none" 
	d="
M233.237549,131.189041 
	C233.637939,131.193039 234.038315,131.197021 235.153412,131.212524 
	C237.576599,131.152924 239.285095,131.081802 241.456726,131.067322 
	C259.865723,131.144363 277.544098,133.043137 294.946777,138.853363 
	C298.143463,140.966858 301.089417,142.866058 304.035370,144.765274 
	C267.169312,133.785950 230.502747,134.389053 193.298767,142.017242 
	C196.348984,139.582520 199.547455,137.207275 203.126968,136.235321 
	C209.652359,134.463486 216.403656,133.523666 223.060715,132.236740 
	C223.495331,132.206024 223.929932,132.175308 225.069305,132.095779 
	C226.844025,131.969955 227.913956,131.892944 229.353851,131.879303 
	C230.895065,131.691467 232.066299,131.440262 233.237549,131.189041 
z"/>
<path fill="#8A3082" opacity="1.000000" stroke="none" 
	d="
M298.010345,183.852417 
	C298.422150,183.979584 298.833923,184.106766 299.849609,184.500916 
	C303.309906,185.454483 306.166290,186.141068 309.022705,186.827652 
	C309.359161,186.946365 309.695587,187.065079 310.473694,187.402924 
	C311.275360,187.685974 311.635376,187.749924 311.995392,187.813873 
	C311.995392,187.813858 312.414948,188.014450 312.812653,188.293182 
	C313.804321,188.676758 314.398254,188.781570 314.992218,188.886383 
	C314.992218,188.886398 315.280151,189.114334 315.613464,189.363571 
	C316.297394,189.679672 316.647980,189.746536 316.998596,189.813416 
	C316.998596,189.813400 317.432465,190.008545 317.780853,190.225754 
	C318.367767,190.693893 318.655090,190.777725 318.991150,190.694443 
	C319.145477,190.778870 319.299835,190.863312 319.884857,191.221252 
	C320.871521,191.678665 321.427490,191.862549 321.983459,192.046432 
	C322.391907,192.364227 322.800354,192.682022 323.598602,193.295166 
	C324.321991,193.725449 324.655609,193.860382 324.989197,193.995316 
	C324.989197,193.995316 324.997559,194.003799 325.086426,194.236404 
	C325.391449,194.757126 325.678833,194.884064 326.037415,194.849854 
	C326.845337,195.792419 327.653229,196.734970 328.765259,198.136978 
	C329.323212,198.891434 329.577026,199.186447 329.830841,199.481461 
	C329.830841,199.481461 329.835358,199.793594 329.934479,200.220703 
	C330.305176,201.211182 330.576752,201.774536 330.848328,202.337906 
	C331.088379,205.799332 331.328430,209.260773 331.421082,212.680359 
	C328.399353,207.530685 324.134979,204.065323 318.756622,201.822006 
	C301.864288,194.776154 284.095886,192.102051 265.978363,191.128632 
	C264.290192,190.992859 262.601990,190.857086 260.133057,190.567291 
	C249.235641,190.276077 239.118973,190.138916 229.002289,190.001755 
	C229.002289,190.001755 229.000000,190.000000 229.025146,189.545288 
	C229.032486,186.062836 229.014648,183.035110 228.996826,180.007385 
	C229.792053,179.731339 230.587296,179.455292 232.155487,179.140045 
	C248.954788,179.733871 264.981140,180.366913 281.007507,180.999939 
	C281.338837,181.103912 281.670166,181.207870 282.590820,181.490616 
	C285.081177,181.877731 286.982269,182.086075 288.883331,182.294418 
	C288.883331,182.294418 288.936920,182.191864 289.116119,182.452179 
	C290.193359,182.753784 291.091431,182.795090 291.989471,182.836395 
	C292.422668,182.937988 292.855835,183.039566 293.891327,183.353378 
	C295.665863,183.661209 296.838104,183.756805 298.010345,183.852417 
M273.592438,188.280075 
	C280.034912,189.532959 286.530975,190.563156 292.906067,192.096191 
	C300.544495,193.932983 308.138733,196.011063 315.632324,198.365814 
	C318.915863,199.397614 321.013702,198.925644 322.754456,195.512009 
	C321.105804,194.593277 319.651886,193.437775 317.998322,192.920578 
	C310.273895,190.504486 302.615143,187.640717 294.705902,186.109619 
	C283.204926,183.883209 271.548859,182.230606 259.883057,181.160004 
	C251.621414,180.401779 243.230530,180.885925 234.907181,181.139099 
	C233.605652,181.178680 232.356613,182.943909 231.083298,183.911179 
	C232.141006,185.236618 232.948990,187.140228 234.322861,187.733643 
	C235.861984,188.398438 237.913376,187.878448 239.741867,187.871735 
	C242.828125,187.860428 245.916351,187.770447 249.000244,187.850037 
	C256.935547,188.054840 264.868927,188.334457 273.592438,188.280075 
M324.699158,201.630859 
	C325.618652,202.238266 326.538147,202.845688 327.457672,203.453110 
	C327.785095,203.118118 328.112518,202.783127 328.439941,202.448151 
	C327.376373,200.655975 326.312775,198.863815 325.249207,197.071655 
	C324.712982,197.208054 324.176788,197.344452 323.640594,197.480850 
	C323.827606,198.705826 324.014587,199.930801 324.699158,201.630859 
z"/>
<path fill="#FBE4FA" opacity="1.000000" stroke="none" 
	d="
M265.965546,191.536194 
	C284.095886,192.102051 301.864288,194.776154 318.756622,201.822006 
	C324.134979,204.065323 328.399353,207.530685 331.278717,212.954529 
	C331.116516,214.475891 330.949280,215.681244 330.479187,216.949387 
	C325.776062,208.926132 317.875732,206.087051 309.770416,204.116241 
	C299.418457,201.599152 288.969543,199.227829 278.425903,197.806030 
	C258.309326,195.093323 238.077881,194.708008 217.850998,196.981232 
	C217.194153,197.055038 216.521072,196.984283 215.425476,196.913757 
	C217.419006,195.901566 219.826401,194.191177 222.268967,194.139359 
	C235.237228,193.864166 248.215195,194.075974 261.187164,193.911240 
	C262.783752,193.890976 264.364594,192.629852 265.965546,191.536194 
z"/>
<path fill="#E3FCDB" opacity="1.000000" stroke="none" 
	d="
M283.210693,287.867798 
	C287.684906,281.265076 286.776764,277.899628 278.957520,275.002777 
	C264.180298,269.528107 248.795227,269.300415 233.382721,270.622375 
	C226.502945,271.212402 219.718170,272.909943 212.495255,274.107544 
	C215.315750,269.544891 220.251740,269.795288 224.994019,269.504486 
	C225.580978,269.468506 226.168365,269.439331 226.036057,269.446625 
	C225.349960,265.741028 224.710205,262.285736 224.123871,258.389771 
	C224.679764,257.992981 225.182251,258.036896 225.875488,258.493286 
	C226.401016,262.422546 225.786331,266.548248 231.217987,266.726135 
	C243.797440,267.138000 256.478210,266.740326 268.920807,268.271973 
	C277.720703,269.355255 287.855957,270.056366 292.005859,281.014343 
	C295.541168,278.794952 298.693756,275.874207 297.676605,271.903442 
	C296.997284,269.251434 293.726959,267.185699 291.425262,265.064758 
	C290.500031,264.212189 289.064056,263.913849 287.860535,263.363281 
	C289.900787,260.791565 295.821075,262.158234 298.527191,265.909363 
	C299.919586,267.839478 301.142426,269.891876 302.808960,271.902832 
	C303.176025,271.916595 303.284821,272.258057 303.237244,272.430206 
	C300.926086,275.686768 299.100281,279.286987 296.262848,281.695282 
	C293.920959,283.682922 290.382172,284.260406 287.134705,285.558350 
	C287.227905,286.141083 287.401093,287.223938 287.628052,288.642914 
	C286.083954,288.363007 284.830505,288.135773 283.210693,287.867798 
z"/>
<path fill="#E3FCDB" opacity="1.000000" stroke="none" 
	d="
M222.812927,131.900558 
	C216.403656,133.523666 209.652359,134.463486 203.126968,136.235321 
	C199.547455,137.207275 196.348984,139.582520 193.298767,142.017242 
	C230.502747,134.389053 267.169312,133.785950 304.035370,144.765274 
	C301.089417,142.866058 298.143463,140.966858 295.036896,138.459778 
	C294.910553,137.586792 294.944855,137.321671 294.979156,137.056534 
	C299.745514,138.257263 304.360901,139.271255 305.991943,145.191971 
	C306.708160,147.791901 309.272491,149.882736 311.046021,152.557434 
	C310.673981,153.714310 310.253601,154.518478 309.523865,154.813400 
	C308.268494,153.191162 307.544128,151.574692 306.341217,151.045090 
	C297.013397,146.938309 287.584564,143.283783 277.311371,141.920837 
	C258.226257,139.388794 239.152695,139.644516 219.918182,140.897659 
	C219.689270,140.962769 219.578705,141.205292 219.515579,141.492630 
	C219.563019,141.537445 219.594009,141.664246 219.594009,141.664246 
	C218.721573,141.449265 217.849136,141.234299 216.526489,141.001022 
	C209.771286,142.110580 203.482117,143.343079 197.151184,144.299179 
	C195.373901,144.567581 193.473907,144.023407 191.630188,143.851959 
	C192.464539,141.890045 192.795670,138.803802 194.222351,138.165253 
	C199.736435,135.697220 205.507736,133.643616 211.367661,132.168274 
	C214.925323,131.272568 218.821198,131.720215 222.812927,131.900558 
z"/>
<path fill="#FEEDD6" opacity="1.000000" stroke="none" 
	d="
M268.416473,244.924057 
	C266.408539,243.910172 264.808716,242.195633 263.199249,242.186508 
	C244.467743,242.080338 225.651779,240.857742 207.192093,245.448288 
	C206.710007,245.568176 206.243927,245.752472 205.377396,245.938934 
	C204.769073,243.287094 204.657928,240.589249 204.304672,237.923477 
	C204.032806,235.871780 203.456451,233.860443 203.027313,231.408173 
	C203.692719,229.887573 204.346298,228.789978 204.580460,228.396744 
	C210.533661,228.396744 215.989731,228.396744 221.714813,228.681641 
	C216.494400,229.843185 211.004944,230.719849 205.202911,231.646423 
	C205.712067,233.707428 206.221359,235.430557 206.553711,237.187164 
	C207.175110,240.471603 208.963913,241.253891 212.248291,240.833481 
	C238.123489,237.521347 263.909180,237.756912 289.727325,243.944977 
	C287.882782,244.847488 285.823547,245.342758 283.756012,245.380249 
	C280.156708,245.445541 276.552277,245.228455 272.950012,245.129730 
	C271.573364,245.091705 270.196747,245.053650 268.416473,244.924057 
z"/>
<path fill="#4A4D51" opacity="1.000000" stroke="none" 
	d="
M131.236496,325.030487 
	C134.509491,325.598206 137.384964,326.250824 140.273102,326.312683 
	C141.126221,326.330933 142.645569,324.720154 142.703201,323.784668 
	C142.756622,322.917938 141.437317,321.551971 140.418716,321.116608 
	C137.990158,320.078613 135.273224,319.701630 132.871811,318.616974 
	C129.059052,316.894867 128.047516,313.354584 130.071457,309.967102 
	C132.674057,305.611053 142.405685,304.388214 145.669113,308.131744 
	C146.218887,308.762360 145.942093,310.113556 146.044220,311.102905 
	C142.672729,310.591980 139.784149,309.824341 136.912033,309.881714 
	C135.766541,309.904572 134.657455,311.749908 133.531815,312.765594 
	C134.486435,313.778595 135.263077,315.168793 136.434784,315.721619 
	C138.513672,316.702484 141.155655,316.716888 142.959518,317.989624 
	C144.754639,319.256195 147.015259,321.667786 146.878616,323.404785 
	C146.712570,325.515472 144.533066,328.794250 142.724518,329.171722 
	C139.019394,329.945068 134.905014,329.523804 131.105103,328.813538 
	C128.478470,328.322571 128.118271,326.406281 131.236496,325.030487 
z"/>
<path fill="#F9F6C0" opacity="1.000000" stroke="none" 
	d="
M294.825928,136.748032 
	C294.944855,137.321671 294.910553,137.586792 294.786133,138.245483 
	C277.544098,133.043137 259.865723,131.144363 241.467529,130.676758 
	C241.088852,129.714203 241.162552,129.198868 241.684967,128.738922 
	C256.098999,129.874664 270.064331,130.954971 285.303650,132.133850 
	C270.310883,126.413910 255.956345,125.370422 241.323624,126.369308 
	C243.120087,121.858902 247.519455,123.234169 250.420486,123.301071 
	C257.785400,123.470917 265.170227,124.548912 272.459015,125.783295 
	C280.805267,127.196747 288.215332,130.911728 294.825928,136.748032 
z"/>
<path fill="#4A4D51" opacity="1.000000" stroke="none" 
	d="
M266.505402,314.115662 
	C266.524597,311.349762 266.524597,309.062958 266.524597,306.297516 
	C270.873322,306.297516 274.822815,305.935608 278.672485,306.400513 
	C282.431305,306.854431 285.191925,309.073547 284.972015,313.359222 
	C284.745544,317.773376 281.942322,319.754181 277.796967,320.032532 
	C275.692902,320.173828 273.571533,320.057251 271.113892,320.057251 
	C271.113892,323.395905 271.113892,326.317810 271.113892,329.596893 
	C269.612152,329.769928 268.413605,329.907990 266.486206,330.130035 
	C266.486206,324.716370 266.486206,319.655579 266.505402,314.115662 
M277.064301,309.782013 
	C275.147339,309.782013 273.230377,309.782013 271.200806,309.782013 
	C271.200806,312.315948 271.200806,314.371490 271.200806,316.811310 
	C273.241821,316.811310 275.139526,317.207733 276.748749,316.696381 
	C278.264191,316.214813 280.155457,314.997284 280.582855,313.681671 
	C280.869873,312.798096 278.894470,311.179565 277.064301,309.782013 
z"/>
<path fill="#4A4D51" opacity="1.000000" stroke="none" 
	d="
M342.469849,327.464905 
	C339.460754,321.025818 340.458008,316.117706 344.969849,313.672516 
	C350.638123,310.600616 355.823059,314.242859 355.979431,321.846191 
	C352.400574,321.846191 348.811859,321.846191 345.156464,321.846191 
	C346.077911,327.336517 347.103485,327.735718 355.830566,325.776306 
	C355.173340,327.283661 355.006073,328.755310 354.321716,329.057983 
	C350.268555,330.850769 346.273499,330.896667 342.469849,327.464905 
z"/>
<path fill="#4A4D51" opacity="1.000000" stroke="none" 
	d="
M336.161957,322.325806 
	C336.162079,325.062958 336.162079,327.369659 336.162079,329.848267 
	C334.715881,329.848267 333.587006,329.848267 331.969635,329.848267 
	C331.969635,326.537262 332.263519,323.208801 331.831848,319.977234 
	C331.646912,318.592865 329.952179,317.410187 328.943420,316.135864 
	C327.598633,317.320007 325.343689,318.338867 325.092560,319.721619 
	C324.514008,322.907318 324.909058,326.269775 324.909058,329.560516 
	C324.438568,329.871613 323.968048,330.182709 323.497559,330.493805 
	C322.476440,329.485870 320.650726,328.535400 320.573883,327.459961 
	C320.245758,322.868469 320.434235,318.240051 320.434235,313.723175 
	C324.111053,313.416229 327.544586,312.722107 330.919678,312.938599 
	C336.686646,313.308472 336.063293,317.926208 336.161957,322.325806 
z"/>
<path fill="#4A4D51" opacity="1.000000" stroke="none" 
	d="
M238.473267,329.795593 
	C235.773270,330.405487 234.814850,329.636963 234.919327,327.121643 
	C235.104752,322.657532 234.971359,318.180115 234.971359,313.719238 
	C238.502502,313.416626 241.897995,312.949738 245.301559,312.880707 
	C249.134430,312.802917 250.462906,315.566986 250.696320,318.775879 
	C250.947556,322.229553 250.753082,325.715698 250.753082,329.463562 
	C248.087921,330.417450 246.224533,330.612762 246.397644,326.896423 
	C246.497925,324.743408 246.796188,322.486053 246.288635,320.454742 
	C245.891083,318.863739 244.392212,317.547913 243.382629,316.109802 
	C241.987976,317.465637 239.767090,318.620148 239.376999,320.220825 
	C238.647675,323.213684 238.980438,326.465332 238.473267,329.795593 
z"/>
<path fill="#4A4D51" opacity="1.000000" stroke="none" 
	d="
M208.778412,330.086426 
	C203.243790,327.256561 201.490036,322.775940 203.560349,317.686432 
	C205.341232,313.308411 207.808380,312.532166 214.134567,313.761230 
	C215.778915,314.080750 217.634155,313.314850 219.947144,312.963165 
	C219.947144,316.143250 219.947144,318.927765 219.947144,321.712250 
	C219.947144,324.323761 219.947144,326.935272 219.947144,329.512878 
	C216.042343,329.737488 212.601868,329.935394 208.778412,330.086426 
M215.798553,320.709106 
	C214.223053,319.153107 212.647552,317.597076 211.072037,316.041077 
	C209.739655,317.517242 207.270035,319.048157 207.337860,320.456909 
	C207.443100,322.643188 208.822449,326.046997 210.469498,326.622406 
	C214.267242,327.949249 215.548218,324.840546 215.798553,320.709106 
z"/>
<path fill="#4A4D51" opacity="1.000000" stroke="none" 
	d="
M298.086060,320.299194 
	C300.468262,312.902771 302.295685,312.070099 309.544525,313.935577 
	C310.967957,314.301910 312.740662,313.311035 314.793030,312.846283 
	C314.793030,318.669952 314.793030,324.083008 314.793030,329.438110 
	C311.312347,329.658661 307.744751,330.398468 304.317627,329.982086 
	C299.113068,329.349731 298.095337,325.191559 298.086060,320.299194 
M310.985077,320.684906 
	C309.582458,319.140656 308.398438,317.181488 306.663757,316.267426 
	C306.018738,315.927521 303.214844,317.837036 302.934448,319.070618 
	C302.473175,321.100098 302.910248,323.555511 303.698547,325.541565 
	C304.028503,326.372803 306.926575,327.222382 307.440796,326.747253 
	C308.952972,325.350098 309.855865,323.293518 310.985077,320.684906 
z"/>
<path fill="#4A4D51" opacity="1.000000" stroke="none" 
	d="
M167.085419,316.259888 
	C167.086761,321.036713 167.086761,325.339417 167.086761,329.485046 
	C163.550873,329.725769 160.410034,330.071381 157.264771,330.118134 
	C153.852188,330.168884 151.993073,328.178101 151.844421,324.879028 
	C151.673035,321.075653 151.804581,317.258636 151.804581,313.262329 
	C153.167847,313.262329 154.284805,313.262329 155.944427,313.262329 
	C155.944427,316.506836 155.673203,319.668701 156.063263,322.746796 
	C156.247635,324.201752 157.698425,325.496246 158.575409,326.863434 
	C160.001892,325.536011 162.292877,324.412994 162.665634,322.836426 
	C163.335739,320.002258 162.854843,316.895905 162.854843,313.686676 
	C165.181046,312.869598 167.171875,312.107178 167.085419,316.259888 
z"/>
<path fill="#4A4D51" opacity="1.000000" stroke="none" 
	d="
M173.303238,325.789551 
	C176.460861,326.655762 179.335022,328.568024 182.659195,324.686493 
	C180.186096,323.879974 178.011688,323.629425 176.426819,322.529480 
	C174.725174,321.348450 172.199905,319.021118 172.503967,317.818359 
	C172.985565,315.913208 175.267410,313.689392 177.240463,313.089142 
	C181.977295,311.648071 184.858078,313.573578 184.484711,316.947998 
	C181.745926,316.947998 179.007095,316.947998 176.268265,316.947998 
	C176.203064,317.480316 176.137863,318.012604 176.072662,318.544922 
	C177.982391,319.220825 180.144760,319.541260 181.732712,320.669922 
	C183.410965,321.862701 185.915802,324.199280 185.598175,325.366394 
	C185.089752,327.234650 182.782425,329.249481 180.805649,329.903961 
	C178.812057,330.563995 176.222366,329.890594 174.051392,329.259430 
	C173.411392,329.073395 173.306503,327.046692 173.303238,325.789551 
z"/>
<path fill="#E3FCDB" opacity="1.000000" stroke="none" 
	d="
M217.113495,280.316467 
	C223.913101,279.099548 230.745422,278.031494 237.619186,277.512390 
	C249.111404,276.644562 260.530182,277.307007 271.451141,281.367401 
	C277.271454,283.531372 277.664886,285.464050 274.064880,290.555481 
	C273.575195,289.272614 273.066620,287.647583 272.170868,284.785461 
	C260.680420,277.065857 246.378632,280.084930 232.348740,280.663025 
	C227.295349,280.871246 222.226578,280.706573 217.113495,280.316467 
z"/>
<path fill="#4A4D51" opacity="1.000000" stroke="none" 
	d="
M199.820145,329.456116 
	C193.247330,330.486603 191.724594,329.079346 191.215286,322.755890 
	C191.020493,320.337616 192.987808,316.834167 188.595200,315.878998 
	C188.350906,315.825867 187.995132,314.796295 188.153778,314.605194 
	C190.134277,312.219574 192.200378,309.905060 195.107681,306.587158 
	C195.515228,309.558014 195.707016,310.956116 195.850586,312.002655 
	C197.348038,312.990723 198.668655,313.862122 199.989258,314.733521 
	C198.769119,315.525116 197.548965,316.316681 195.952072,317.352722 
	C195.798141,321.000763 193.987015,325.671875 199.940323,327.670105 
	C200.093781,327.721619 199.966995,328.608002 199.820145,329.456116 
z"/>
<path fill="#4A4D51" opacity="1.000000" stroke="none" 
	d="
M358.948242,315.567841 
	C360.677185,312.651062 362.563446,310.070648 364.449738,307.490265 
	C364.839661,307.662567 365.229584,307.834839 365.619507,308.007141 
	C365.867523,309.526367 366.115540,311.045593 366.289185,312.109314 
	C367.890228,313.112946 369.223724,313.948883 370.557251,314.784821 
	C369.286957,315.524261 368.016693,316.263702 366.272186,317.279144 
	C366.897522,320.504852 363.344940,325.536682 370.077026,327.122437 
	C369.732208,328.109589 369.633392,329.730988 369.000824,329.976440 
	C365.917023,331.172699 362.516205,328.978271 362.051819,325.561890 
	C361.785675,323.603790 362.295898,321.497437 361.809326,319.626099 
	C361.450104,318.244537 360.044800,317.134979 358.948242,315.567841 
z"/>
<path fill="#F1C222" opacity="1.000000" stroke="none" 
	d="
M241.289093,126.544395 
	C255.956345,125.370422 270.310883,126.413910 285.303650,132.133850 
	C270.064331,130.954971 256.098999,129.874664 241.698517,128.460770 
	C241.203644,127.762527 241.143982,127.397858 241.084320,127.033188 
	C241.084305,127.033188 241.254547,126.719482 241.289093,126.544395 
z"/>
<path fill="#4A4D51" opacity="1.000000" stroke="none" 
	d="
M293.412048,315.062836 
	C293.410919,320.177521 293.410919,324.806213 293.410919,329.736389 
	C291.907074,329.736389 290.701996,329.736389 289.128845,329.736389 
	C289.128845,322.443939 289.005219,315.333771 289.253845,308.236633 
	C289.294037,307.089600 290.989105,306.000488 291.919220,304.884583 
	C292.417206,305.167816 292.915161,305.451050 293.413147,305.734253 
	C293.413147,308.681793 293.413147,311.629303 293.412048,315.062836 
z"/>
<path fill="#FBE4FA" opacity="1.000000" stroke="none" 
	d="
M209.370087,209.970322 
	C214.502579,209.011353 220.078079,207.440430 225.698196,207.260132 
	C237.957993,206.866776 250.245865,206.975388 262.511322,207.296997 
	C268.219330,207.446686 273.901794,208.570679 279.834412,209.605927 
	C267.371185,209.309952 254.670914,208.196548 241.967148,208.155060 
	C231.257996,208.120102 220.544769,209.330078 209.370087,209.970322 
z"/>
<path fill="#606366" opacity="1.000000" stroke="none" 
	d="
M229.876221,321.978729 
	C229.875641,323.952026 229.772919,325.456604 229.895111,326.942657 
	C230.171341,330.301331 228.323441,330.428406 225.573807,329.728516 
	C225.573807,324.323792 225.573807,318.915131 225.573807,313.510437 
	C228.277725,312.562378 230.047272,312.656006 229.887833,316.016357 
	C229.801270,317.840851 229.874847,319.672943 229.876221,321.978729 
z"/>
<path fill="#FEEDD6" opacity="1.000000" stroke="none" 
	d="
M240.730194,211.693726 
	C232.385544,212.611572 223.803040,213.216461 215.226486,213.896362 
	C212.418243,214.118973 209.625458,214.536545 206.403931,214.791229 
	C207.461380,213.936386 208.881744,212.635529 210.429367,212.460602 
	C218.866196,211.506973 227.328171,210.743912 235.797440,210.138351 
	C237.325058,210.029114 238.927017,210.959518 240.730194,211.693726 
z"/>
<path fill="#FEEDD6" opacity="1.000000" stroke="none" 
	d="
M308.917694,257.035248 
	C308.344452,256.578186 307.771210,256.121124 307.034058,255.039688 
	C305.555756,253.969299 304.241364,253.523270 302.926941,253.077240 
	C302.926941,253.077240 302.971069,253.078415 302.973328,252.716003 
	C303.689606,251.141373 304.403564,249.929153 305.117554,248.716919 
	C310.645416,250.357300 314.244080,253.585327 314.214355,260.168457 
	C313.984741,260.920166 313.769226,261.291199 313.132294,261.507751 
	C311.446472,259.913910 310.182098,258.474579 308.917694,257.035248 
z"/>
<path fill="#FBE4FA" opacity="1.000000" stroke="none" 
	d="
M280.744202,180.711487 
	C264.981140,180.366913 248.954788,179.733871 232.463013,179.036713 
	C232.723984,178.652054 233.453049,178.046234 234.176407,178.052963 
	C249.643143,178.196671 265.184875,176.957291 280.744202,180.711487 
z"/>
<path fill="#FBE4FA" opacity="1.000000" stroke="none" 
	d="
M229.068176,190.385910 
	C239.118973,190.138916 249.235641,190.276077 259.711761,190.618271 
	C254.937302,191.209305 249.808640,191.710297 244.667831,191.944489 
	C240.644852,192.127731 236.603653,192.068497 232.577438,191.924271 
	C231.417343,191.882721 230.281189,191.173294 229.068176,190.385910 
z"/>
<path fill="#F9F6C0" opacity="1.000000" stroke="none" 
	d="
M308.982635,257.394470 
	C310.182098,258.474579 311.446472,259.913910 312.854218,261.674377 
	C312.974274,263.071686 312.951019,264.147888 312.631256,265.754944 
	C311.554565,267.145142 310.774323,268.004456 309.994080,268.863739 
	C308.163269,270.218781 306.332458,271.573822 304.114655,272.831421 
	C305.163452,271.151154 306.570831,269.541473 308.040985,267.991302 
	C311.041656,264.827332 311.665100,261.456787 308.982635,257.394470 
z"/>
<path fill="#FEEDD6" opacity="1.000000" stroke="none" 
	d="
M184.766846,218.760620 
	C179.880630,221.292343 174.771469,223.547379 169.310486,225.843262 
	C172.282440,219.476318 178.619812,219.415344 184.766846,218.760620 
z"/>
<path fill="#FEEDD6" opacity="1.000000" stroke="none" 
	d="
M317.174194,243.302551 
	C319.000763,244.089798 320.963318,245.209213 322.991547,246.674118 
	C322.372498,248.794525 321.749542,250.596634 320.984558,252.336288 
	C320.301270,253.890244 319.461243,255.375290 318.320190,256.928284 
	C319.723175,252.426773 321.673676,247.879242 317.174194,243.302551 
z"/>
<path fill="#FEEDD6" opacity="1.000000" stroke="none" 
	d="
M266.694214,212.643814 
	C261.896973,212.718002 256.826752,212.513824 251.404587,212.119568 
	C256.175537,212.074814 261.298370,212.220139 266.694214,212.643814 
z"/>
<path fill="#FBE4FA" opacity="1.000000" stroke="none" 
	d="
M178.385315,234.006653 
	C182.067413,232.377335 186.168152,230.766342 190.645721,229.213348 
	C188.085434,233.775238 183.149933,233.142456 178.385315,234.006653 
z"/>
<path fill="#E3FCDB" opacity="1.000000" stroke="none" 
	d="
M211.745163,274.107727 
	C213.679977,275.842468 215.247101,277.577881 216.943054,279.622925 
	C210.709869,279.945526 209.137924,278.337769 211.745163,274.107727 
z"/>
<path fill="#E3FCDB" opacity="1.000000" stroke="none" 
	d="
M240.711517,127.027534 
	C241.143982,127.397858 241.203644,127.762527 241.249786,128.405365 
	C241.162552,129.198868 241.088852,129.714203 241.004364,130.620117 
	C239.285095,131.081802 237.576599,131.152924 235.447189,131.148010 
	C236.797073,129.721954 238.567902,128.371918 240.711517,127.027534 
z"/>
<path fill="#FBE4FA" opacity="1.000000" stroke="none" 
	d="
M308.946533,186.482147 
	C306.166290,186.141068 303.309906,185.454483 300.170593,184.541534 
	C303.394531,182.394257 306.227997,183.794266 308.946533,186.482147 
z"/>
<path fill="#FEEDD6" opacity="1.000000" stroke="none" 
	d="
M203.683807,214.625397 
	C201.215500,215.521378 198.488495,216.155792 195.370346,216.746719 
	C197.794510,215.923431 200.609802,215.143616 203.683807,214.625397 
z"/>
<path fill="#FBE4FA" opacity="1.000000" stroke="none" 
	d="
M170.369202,238.988190 
	C171.747482,237.643829 173.514023,236.311050 175.625641,234.970459 
	C176.201019,238.849716 172.952240,238.244247 170.369202,238.988190 
z"/>
<path fill="#FEEDD6" opacity="1.000000" stroke="none" 
	d="
M310.351532,268.936737 
	C310.774323,268.004456 311.554565,267.145142 312.592896,266.156677 
	C313.464722,267.032684 314.078400,268.037842 314.692078,269.042969 
	C313.364380,269.031891 312.036682,269.020813 310.351532,268.936737 
z"/>
<path fill="#FEEDD6" opacity="1.000000" stroke="none" 
	d="
M192.720886,216.669434 
	C191.196030,217.529617 189.434937,218.131866 187.315796,218.698761 
	C187.788788,215.430725 190.081131,215.784698 192.720886,216.669434 
z"/>
<path fill="#FBE4FA" opacity="1.000000" stroke="none" 
	d="
M228.704956,180.284210 
	C229.014648,183.035110 229.032486,186.062836 229.025024,189.543701 
	C228.804169,186.851578 228.608627,183.706314 228.704956,180.284210 
z"/>
<path fill="#FEEDD6" opacity="1.000000" stroke="none" 
	d="
M314.972321,260.767517 
	C315.512665,259.520294 316.444000,258.364441 317.668030,257.082184 
	C318.596375,259.256012 319.381287,261.655518 314.972321,260.767517 
z"/>
<path fill="#E3FCDB" opacity="1.000000" stroke="none" 
	d="
M228.983902,131.815933 
	C227.913956,131.892944 226.844025,131.969955 225.375885,131.979248 
	C226.167770,131.419601 227.357834,130.927658 228.773712,130.901764 
	C228.999527,131.367813 228.983902,131.815933 228.983902,131.815933 
z"/>
<path fill="#FBE4FA" opacity="1.000000" stroke="none" 
	d="
M297.940399,183.517670 
	C296.838104,183.756805 295.665863,183.661209 294.225708,183.333328 
	C295.262024,183.128342 296.566254,183.155640 297.940399,183.517670 
z"/>
<path fill="#FEEDD6" opacity="1.000000" stroke="none" 
	d="
M198.904816,245.732544 
	C198.178528,246.355499 197.432220,246.663483 196.383484,246.998169 
	C196.712006,244.260849 197.243958,243.955902 198.904816,245.732544 
z"/>
<path fill="#FBE4FA" opacity="1.000000" stroke="none" 
	d="
M288.685852,181.927002 
	C286.982269,182.086075 285.081177,181.877731 282.844696,181.418518 
	C284.502319,181.298279 286.495331,181.428925 288.685852,181.927002 
z"/>
<path fill="#E3FCDB" opacity="1.000000" stroke="none" 
	d="
M280.250122,289.889282 
	C280.651062,289.195465 281.420258,288.522034 282.514374,287.838257 
	C282.098999,288.521820 281.358673,289.215759 280.250122,289.889282 
z"/>
<path fill="#E3FCDB" opacity="1.000000" stroke="none" 
	d="
M278.042786,290.859619 
	C278.380096,290.351959 278.847687,290.128357 279.596191,289.887482 
	C279.309082,290.294678 278.741058,290.719177 278.042786,290.859619 
z"/>
<path fill="#F9F6C0" opacity="1.000000" stroke="none" 
	d="
M229.353851,131.879303 
	C228.983902,131.815933 228.999527,131.367813 229.012665,131.143158 
	C230.150940,130.953079 231.276093,130.987656 232.819397,131.105621 
	C232.066299,131.440262 230.895065,131.691467 229.353851,131.879303 
z"/>
<path fill="#FBE4FA" opacity="1.000000" stroke="none" 
	d="
M291.749756,182.593140 
	C291.091431,182.795090 290.193359,182.753784 289.060608,182.468491 
	C289.720612,182.266281 290.615356,182.308075 291.749756,182.593140 
z"/>
<path fill="#FBE4FA" opacity="1.000000" stroke="none" 
	d="
M314.802124,188.651215 
	C314.398254,188.781570 313.804321,188.676758 313.044434,188.311584 
	C313.456360,188.172821 314.034180,188.294434 314.802124,188.651215 
z"/>
<path fill="#FBE4FA" opacity="1.000000" stroke="none" 
	d="
M321.828979,191.783722 
	C321.427490,191.862549 320.871521,191.678665 320.147278,191.249146 
	C320.544189,191.175995 321.109344,191.348511 321.828979,191.783722 
z"/>
<path fill="#FBE4FA" opacity="1.000000" stroke="none" 
	d="
M330.893097,202.006607 
	C330.576752,201.774536 330.305176,201.211182 330.049683,200.326019 
	C330.356445,200.561249 330.647156,201.118286 330.893097,202.006607 
z"/>
<path fill="#FBE4FA" opacity="1.000000" stroke="none" 
	d="
M316.828430,189.607727 
	C316.647980,189.746536 316.297394,189.679672 315.796448,189.379120 
	C315.983490,189.230988 316.320892,189.316513 316.828430,189.607727 
z"/>
<path fill="#FBE4FA" opacity="1.000000" stroke="none" 
	d="
M325.923889,194.646729 
	C325.678833,194.884064 325.391449,194.757126 325.091614,194.239197 
	C325.332947,194.047745 325.600433,194.192490 325.923889,194.646729 
z"/>
<path fill="#FBE4FA" opacity="1.000000" stroke="none" 
	d="
M324.856628,193.754913 
	C324.655609,193.860382 324.321991,193.725449 323.863037,193.343262 
	C324.066467,193.235504 324.395233,193.375000 324.856628,193.754913 
z"/>
<path fill="#FBE4FA" opacity="1.000000" stroke="none" 
	d="
M329.812073,199.176865 
	C329.577026,199.186447 329.323212,198.891434 329.031769,198.297485 
	C329.260559,198.289795 329.526917,198.581024 329.812073,199.176865 
z"/>
<path fill="#FBE4FA" opacity="1.000000" stroke="none" 
	d="
M318.860321,190.513443 
	C318.655090,190.777725 318.367767,190.693893 318.018433,190.237000 
	C318.222656,190.019577 318.496613,190.120041 318.860321,190.513443 
z"/>
<path fill="#FBE4FA" opacity="1.000000" stroke="none" 
	d="
M311.816376,187.601196 
	C311.635376,187.749924 311.275360,187.685974 310.742737,187.395065 
	C310.925842,187.241577 311.281616,187.315033 311.816376,187.601196 
z"/>
<path fill="#E0F6FB" opacity="1.000000" stroke="none" 
	d="
M176.877014,161.142120 
	C176.913986,161.356018 176.710464,161.606934 176.251801,161.869843 
	C176.112045,161.558456 176.325333,161.324219 176.877014,161.142120 
z"/>
<path fill="#FEEDD6" opacity="1.000000" stroke="none" 
	d="
M168.681976,226.006958 
	C168.904694,226.303757 168.768661,226.552872 168.237442,226.663116 
	C168.091904,226.358841 168.252243,226.170517 168.681976,226.006958 
z"/>
<path fill="#FEEDD6" opacity="1.000000" stroke="none" 
	d="
M166.868622,227.145584 
	C166.944092,227.374466 166.754211,227.674026 166.298431,228.045135 
	C166.222778,227.816559 166.413025,227.516418 166.868622,227.145584 
z"/>
<path fill="#FBE4FA" opacity="1.000000" stroke="none" 
	d="
M176.159775,234.945770 
	C176.011887,234.639191 176.198135,234.426346 176.737366,234.369415 
	C176.828293,234.661530 176.629501,234.832916 176.159775,234.945770 
z"/>
<path fill="#2F9C60" opacity="1.000000" stroke="none" 
	d="
M220.036514,141.075073 
	C239.152695,139.644516 258.226257,139.388794 277.311371,141.920837 
	C287.584564,143.283783 297.013397,146.938309 306.341217,151.045090 
	C307.544128,151.574692 308.268494,153.191162 309.281311,154.679413 
	C304.410919,154.094742 299.467224,153.167160 294.537720,152.169388 
	C271.648468,147.536514 248.586594,145.707062 225.268646,147.752747 
	C222.984756,147.953094 220.668045,147.779556 217.909805,147.779556 
	C218.474655,145.837860 218.974731,144.118820 219.534409,142.032013 
	C219.594009,141.664246 219.563019,141.537445 219.694153,141.459595 
	C219.825302,141.381729 220.036514,141.075073 220.036514,141.075073 
z"/>
<path fill="#F9F6C0" opacity="1.000000" stroke="none" 
	d="
M304.959961,248.502380 
	C304.403564,249.929153 303.689606,251.141373 302.947906,252.724396 
	C293.129425,250.606720 283.338654,248.118240 273.248962,245.379745 
	C276.552277,245.228455 280.156708,245.445541 283.756012,245.380249 
	C285.823547,245.342758 287.882782,244.847488 290.040649,244.159882 
	C290.555817,243.811157 290.976074,243.860825 291.701538,244.406281 
	C294.458252,250.806061 299.012360,248.819534 303.280487,247.906158 
	C303.787781,248.033386 304.295074,248.160629 304.959961,248.502380 
z"/>
<path fill="#FEEDD6" opacity="1.000000" stroke="none" 
	d="
M225.486465,228.880920 
	C229.501373,227.315918 233.943100,225.708679 238.489105,224.490845 
	C239.044907,224.341949 240.160141,226.281387 241.019714,227.645874 
	C235.997177,228.344818 230.971069,228.650925 225.486465,228.880920 
z"/>
<path fill="#FEEDD6" opacity="1.000000" stroke="none" 
	d="
M283.285400,231.248688 
	C290.282806,230.846497 297.678955,230.208817 303.957825,235.640762 
	C297.200500,234.497543 290.393341,232.994980 283.285400,231.248688 
z"/>
<path fill="#FEEDD6" opacity="1.000000" stroke="none" 
	d="
M303.018372,247.644806 
	C299.012360,248.819534 294.458252,250.806061 291.997131,244.526367 
	C295.577118,245.228271 299.166656,246.305862 303.018372,247.644806 
z"/>
<path fill="#FEEDD6" opacity="1.000000" stroke="none" 
	d="
M254.283386,228.305328 
	C257.238617,228.068253 260.527130,228.058655 263.932587,228.416626 
	C260.905243,228.700409 257.760956,228.616608 254.283386,228.305328 
z"/>
<path fill="#FEEDD6" opacity="1.000000" stroke="none" 
	d="
M307.151947,237.396851 
	C310.143585,236.096756 312.652191,236.728912 314.037903,240.456284 
	C311.827484,239.758865 309.598480,238.703949 307.151947,237.396851 
z"/>
<path fill="#FEEDD6" opacity="1.000000" stroke="none" 
	d="
M268.286987,229.184998 
	C269.937317,228.995560 271.893555,229.034286 273.943359,229.417755 
	C272.222290,229.646057 270.407593,229.529617 268.286987,229.184998 
z"/>
<path fill="#FEEDD6" opacity="1.000000" stroke="none" 
	d="
M277.218750,230.327286 
	C278.258911,230.120514 279.570160,230.145523 280.956848,230.502991 
	C279.851440,230.743317 278.670685,230.651199 277.218750,230.327286 
z"/>
<path fill="#FEEDD6" opacity="1.000000" stroke="none" 
	d="
M316.028198,242.268066 
	C316.219208,242.187958 316.510223,242.344406 316.911743,242.729080 
	C316.724213,242.806396 316.426178,242.655502 316.028198,242.268066 
z"/>
<path fill="#FEEDD6" opacity="1.000000" stroke="none" 
	d="
M314.822357,241.350494 
	C315.030609,241.246643 315.379486,241.394058 315.852661,241.805878 
	C315.638947,241.914108 315.300964,241.757935 314.822357,241.350494 
z"/>
<path fill="#FEEDD6" opacity="1.000000" stroke="none" 
	d="
M304.080505,236.194611 
	C304.271698,235.990112 304.514832,236.078201 304.847534,236.411438 
	C304.970367,236.564835 304.538452,236.620575 304.538452,236.620575 
	C304.538452,236.620575 304.165649,236.395432 304.080505,236.194611 
z"/>
<path fill="#F9F6C0" opacity="1.000000" stroke="none" 
	d="
M303.132874,253.331268 
	C304.241364,253.523270 305.555756,253.969299 306.903198,254.794342 
	C305.737091,254.643997 304.537964,254.114655 303.132874,253.331268 
z"/>
<path fill="#8DC14B" opacity="1.000000" stroke="none" 
	d="
M287.463379,263.288879 
	C289.064056,263.913849 290.500031,264.212189 291.425262,265.064758 
	C293.726959,267.185699 296.997284,269.251434 297.676605,271.903442 
	C298.693756,275.874207 295.541168,278.794952 292.005859,281.014343 
	C287.855957,270.056366 277.720703,269.355255 268.920807,268.271973 
	C256.478210,266.740326 243.797440,267.138000 231.217987,266.726135 
	C225.786331,266.548248 226.401016,262.422546 226.251907,258.546082 
	C241.641342,258.760864 256.858643,259.112518 272.041290,260.035034 
	C277.095337,260.342133 282.060486,262.112823 287.463379,263.288879 
z"/>
<path fill="#1FA8DC" opacity="1.000000" stroke="none" 
	d="
M226.992691,157.999329 
	C209.601944,159.340454 192.841675,161.554047 176.633240,167.041046 
	C176.373337,166.543167 176.113434,166.045288 175.853531,165.547409 
	C177.562866,164.361221 179.116211,162.753418 181.005768,162.054260 
	C199.261002,155.299561 218.330811,154.006973 237.587463,152.681320 
	C254.855621,151.492569 271.666901,153.776642 288.432495,156.338242 
	C299.500702,158.029373 310.870148,160.682312 319.279480,169.814224 
	C316.165131,168.701477 312.966736,167.778183 309.951721,166.441315 
	C299.914764,161.990967 289.135223,161.195343 278.468353,160.070663 
	C266.458466,158.804382 254.404312,157.865921 242.346695,157.189178 
	C237.420502,156.912689 232.434738,157.697372 226.992691,157.999329 
z"/>
<path fill="#971B8D" opacity="1.000000" stroke="none" 
	d="
M273.197754,188.432129 
	C264.868927,188.334457 256.935547,188.054840 249.000244,187.850037 
	C245.916351,187.770447 242.828125,187.860428 239.741867,187.871735 
	C237.913376,187.878448 235.861984,188.398438 234.322861,187.733643 
	C232.948990,187.140228 232.141006,185.236618 231.083298,183.911179 
	C232.356613,182.943909 233.605652,181.178680 234.907181,181.139099 
	C243.230530,180.885925 251.621414,180.401779 259.883057,181.160004 
	C271.548859,182.230606 283.204926,183.883209 294.705902,186.109619 
	C302.615143,187.640717 310.273895,190.504486 317.998322,192.920578 
	C319.651886,193.437775 321.105804,194.593277 322.754456,195.512009 
	C321.013702,198.925644 318.915863,199.397614 315.632324,198.365814 
	C308.138733,196.011063 300.544495,193.932983 292.906067,192.096191 
	C286.530975,190.563156 280.034912,189.532959 273.197754,188.432129 
z"/>
<path fill="#971B8D" opacity="1.000000" stroke="none" 
	d="
M324.450378,201.393311 
	C324.014587,199.930801 323.827606,198.705826 323.640594,197.480850 
	C324.176788,197.344452 324.712982,197.208054 325.249207,197.071655 
	C326.312775,198.863815 327.376373,200.655975 328.439941,202.448151 
	C328.112518,202.783127 327.785095,203.118118 327.457672,203.453110 
	C326.538147,202.845688 325.618652,202.238266 324.450378,201.393311 
z"/>
<path fill="#E0F6FB" opacity="1.000000" stroke="none" 
	d="
M219.918182,140.897659 
	C220.036514,141.075073 219.825302,141.381729 219.646729,141.414764 
	C219.578705,141.205292 219.689270,140.962769 219.918182,140.897659 
z"/>
<path fill="#FBE4FA" opacity="1.000000" stroke="none" 
	d="
M277.497803,309.835938 
	C278.894470,311.179565 280.869873,312.798096 280.582855,313.681671 
	C280.155457,314.997284 278.264191,316.214813 276.748749,316.696381 
	C275.139526,317.207733 273.241821,316.811310 271.200806,316.811310 
	C271.200806,314.371490 271.200806,312.315948 271.200806,309.782013 
	C273.230377,309.782013 275.147339,309.782013 277.497803,309.835938 
z"/>
<path fill="#E0F6FB" opacity="1.000000" stroke="none" 
	d="
M215.820862,321.102448 
	C215.548218,324.840546 214.267242,327.949249 210.469498,326.622406 
	C208.822449,326.046997 207.443100,322.643188 207.337860,320.456909 
	C207.270035,319.048157 209.739655,317.517242 211.072052,316.041077 
	C212.647552,317.597076 214.223053,319.153107 215.820862,321.102448 
z"/>
<path fill="#E0F6FB" opacity="1.000000" stroke="none" 
	d="
M310.991180,321.090027 
	C309.855865,323.293518 308.952972,325.350098 307.440796,326.747253 
	C306.926575,327.222382 304.028503,326.372803 303.698547,325.541565 
	C302.910248,323.555511 302.473175,321.100098 302.934448,319.070618 
	C303.214844,317.837036 306.018738,315.927521 306.663757,316.267426 
	C308.398438,317.181488 309.582458,319.140656 310.991180,321.090027 
z"/>
</svg>